<svg id="Livello_1" data-name="Livello 1" xmlns="http://www.w3.org/2000/svg" viewBox="0 0 150 150"><defs><style>.cls-1{fill:none;stroke:#000;stroke-linecap:round;stroke-miterlimit:10;stroke-width:8px;}</style></defs><title>path14</title><path class="cls-1" d="M107.82,114.69l8,15.37L94.93,141l-8.4-16.06A52.35,52.35,0,0,1,75,126.23a53.26,53.26,0,0,1-10.41-1l-6.82,15.92-21.7-9.3,7-16.39a52.81,52.81,0,0,1-14.45-17l-16.16,4.64L6,80.39l16.52-4.74c0-.66,0-1.31,0-2a52.43,52.43,0,0,1,4.15-20.51L13.31,44,26.78,24.56l13.68,9.5a52.44,52.44,0,0,1,24.41-12V6.24H88.48V22.88a52.51,52.51,0,0,1,20.46,10.7l12.54-10.23,14.93,18.3L123.08,52.52a52.21,52.21,0,0,1,4.45,21.16c0,.33,0,.65,0,1L144,78l-4.75,23.13-17.48-3.59A52.64,52.64,0,0,1,107.82,114.69Z"/></svg>